<svg width="35" height="35" viewBox="0 0 35 35" fill="none" xmlns="http://www.w3.org/2000/svg">
<path d="M12.8021 34.5834L12.1188 29.1167C11.7487 28.9743 11.3999 28.8035 11.0724 28.6042C10.745 28.4049 10.4247 28.1913 10.1115 27.9636L5.02922 30.099L0.331299 21.9844L4.73026 18.6531C4.70179 18.4538 4.68755 18.2617 4.68755 18.0766V16.9235C4.68755 16.7384 4.70179 16.5462 4.73026 16.3469L0.331299 13.0156L5.02922 4.90106L10.1115 7.03648C10.4247 6.8087 10.7521 6.59516 11.0938 6.39585C11.4355 6.19655 11.7771 6.02571 12.1188 5.88335L12.8021 0.416687H22.198L22.8813 5.88335C23.2514 6.02571 23.6002 6.19655 23.9277 6.39585C24.2551 6.59516 24.5754 6.8087 24.8886 7.03648L29.9709 4.90106L34.6688 13.0156L30.2698 16.3469C30.2983 16.5462 30.3126 16.7384 30.3126 16.9235V18.0766C30.3126 18.2617 30.2841 18.4538 30.2271 18.6531L34.6261 21.9844L29.9282 30.099L24.8886 27.9636C24.5754 28.1913 24.248 28.4049 23.9063 28.6042C23.5646 28.8035 23.223 28.9743 22.8813 29.1167L22.198 34.5834H12.8021ZM15.7917 31.1667H19.1657L19.7636 26.6396C20.6462 26.4118 21.4648 26.0773 22.2193 25.636C22.9738 25.1946 23.6643 24.6608 24.2907 24.0344L28.5188 25.7854L30.1844 22.8813L26.5115 20.1052C26.6539 19.7066 26.7535 19.2867 26.8105 18.8453C26.8674 18.404 26.8959 17.9556 26.8959 17.5C26.8959 17.0445 26.8674 16.596 26.8105 16.1547C26.7535 15.7134 26.6539 15.2934 26.5115 14.8948L30.1844 12.1188L28.5188 9.2146L24.2907 11.0084C23.6643 10.3535 22.9738 9.8054 22.2193 9.36408C21.4648 8.92276 20.6462 8.58821 19.7636 8.36044L19.2084 3.83335H15.8344L15.2365 8.36044C14.3539 8.58821 13.5353 8.92276 12.7808 9.36408C12.0263 9.8054 11.3358 10.3393 10.7094 10.9656L6.4813 9.2146L4.81567 12.1188L8.48859 14.8521C8.34623 15.2792 8.24658 15.7063 8.18963 16.1334C8.13269 16.5604 8.10422 17.016 8.10422 17.5C8.10422 17.9556 8.13269 18.3969 8.18963 18.824C8.24658 19.2511 8.34623 19.6781 8.48859 20.1052L4.81567 22.8813L6.4813 25.7854L10.7094 23.9917C11.3358 24.6465 12.0263 25.1946 12.7808 25.636C13.5353 26.0773 14.3539 26.4118 15.2365 26.6396L15.7917 31.1667ZM17.5855 23.4792C19.2369 23.4792 20.6462 22.8955 21.8136 21.7281C22.981 20.5608 23.5646 19.1514 23.5646 17.5C23.5646 15.8486 22.981 14.4393 21.8136 13.2719C20.6462 12.1045 19.2369 11.5209 17.5855 11.5209C15.9056 11.5209 14.4891 12.1045 13.336 13.2719C12.1829 14.4393 11.6063 15.8486 11.6063 17.5C11.6063 19.1514 12.1829 20.5608 13.336 21.7281C14.4891 22.8955 15.9056 23.4792 17.5855 23.4792Z" fill="#FEF7FF"/>
</svg>
