<svg width="26" height="25" viewBox="0 0 26 25" fill="none" xmlns="http://www.w3.org/2000/svg">
<path d="M5.47168 24.667C5.23144 24.4912 5.08496 24.2539 5.03222 23.9551C4.98535 23.6621 5.02929 23.3135 5.16406 22.9092L7.52832 15.8516L1.47265 11.501C1.12695 11.2549 0.886717 11 0.751951 10.7363C0.617186 10.4668 0.596678 10.1885 0.690428 9.90137C0.784178 9.62012 0.962889 9.41211 1.22656 9.27734C1.49609 9.13672 1.84179 9.06641 2.26367 9.06641H9.69922L11.9668 2.01758C12.0957 1.60742 12.2656 1.2998 12.4766 1.09473C12.6934 0.883789 12.9482 0.77832 13.2412 0.77832C13.54 0.77832 13.7949 0.883789 14.0059 1.09473C14.2168 1.2998 14.3896 1.60742 14.5244 2.01758L16.7832 9.06641H24.21C24.6436 9.06641 24.9922 9.13672 25.2559 9.27734C25.5254 9.41211 25.707 9.62012 25.8008 9.90137C25.8945 10.1885 25.874 10.4668 25.7393 10.7363C25.6045 11 25.3613 11.2549 25.0098 11.501L18.9541 15.8516L21.3184 22.9092C21.459 23.3135 21.5029 23.6621 21.4502 23.9551C21.3975 24.2539 21.2539 24.4912 21.0195 24.667C20.7793 24.8486 20.5098 24.9131 20.2109 24.8604C19.918 24.8135 19.5957 24.6641 19.2441 24.4121L13.2412 20.0088L7.23828 24.4121C6.88672 24.6641 6.56152 24.8135 6.26269 24.8604C5.96972 24.9131 5.70605 24.8486 5.47168 24.667Z" fill="#0A84FF"/>
</svg>
